<svg width="1231" height="663" viewBox="0 0 1231 663" fill="none" xmlns="http://www.w3.org/2000/svg">
<rect width="1231" height="663" fill="#FFB4DD"/>
<g filter="url(#filter0_f_50_43)">
<path d="M964 383C960.171 382.994 956.432 381.609 953.27 379.026C906.421 340.958 886.135 314.857 874.945 298.538C851.1 263.753 839.685 228.04 840.007 189.366C840.382 145.048 870.087 109 906.224 109C932.501 109 950.701 126.717 961.3 141.473C961.635 141.936 962.05 142.307 962.516 142.561C962.982 142.816 963.488 142.947 964 142.947C964.512 142.947 965.018 142.816 965.484 142.561C965.95 142.307 966.365 141.936 966.7 141.473C977.299 126.703 995.499 109 1021.78 109C1057.91 109 1087.62 145.048 1087.99 189.373C1088.32 228.054 1076.89 263.767 1053.05 298.545C1041.87 314.864 1021.58 340.965 974.73 379.033C971.567 381.614 967.828 382.996 964 383Z" fill="#FF799F"/>
</g>
<g filter="url(#filter1_f_50_43)">
<path d="M964.5 334C962.045 333.996 959.648 333.107 957.621 331.447C927.584 306.995 914.578 290.229 907.404 279.747C892.117 257.403 884.798 234.464 885.004 209.622C885.245 181.155 904.29 158 927.458 158C944.305 158 955.973 169.38 962.769 178.859C962.984 179.156 963.25 179.394 963.549 179.558C963.847 179.721 964.172 179.806 964.5 179.806C964.828 179.806 965.153 179.721 965.451 179.558C965.75 179.394 966.016 179.156 966.231 178.859C973.027 169.371 984.695 158 1001.54 158C1024.71 158 1043.75 181.155 1044 209.627C1044.2 234.473 1036.88 257.413 1021.6 279.752C1014.42 290.234 1001.42 307 971.379 331.452C969.351 333.11 966.954 333.998 964.5 334Z" fill="#A1163D"/>
</g>
<g filter="url(#filter2_f_50_43)">
<path d="M402 192C401.043 191.999 400.108 191.65 399.317 190.999C387.605 181.413 382.534 174.84 379.736 170.73C373.775 161.971 370.921 152.977 371.002 143.238C371.096 132.078 378.522 123 387.556 123C394.125 123 398.675 127.462 401.325 131.178C401.409 131.294 401.513 131.388 401.629 131.452C401.745 131.516 401.872 131.549 402 131.549C402.128 131.549 402.255 131.516 402.371 131.452C402.487 131.388 402.591 131.294 402.675 131.178C405.325 127.458 409.875 123 416.444 123C425.478 123 432.904 132.078 432.998 143.24C433.079 152.981 430.222 161.974 424.264 170.732C421.466 174.842 416.395 181.415 404.683 191.001C403.892 191.651 402.957 191.999 402 192Z" fill="#FF91AF"/>
</g>
<g filter="url(#filter3_f_50_43)">
<path d="M615.5 417C614.064 416.998 612.662 416.477 611.476 415.506C593.908 401.196 586.3 391.384 582.105 385.25C573.163 372.174 568.882 358.749 569.002 344.211C569.143 327.551 580.283 314 593.834 314C603.688 314 610.513 320.66 614.487 326.207C614.613 326.381 614.769 326.521 614.944 326.616C615.118 326.712 615.308 326.761 615.5 326.761C615.692 326.761 615.882 326.712 616.056 326.616C616.231 326.521 616.387 326.381 616.513 326.207C620.487 320.655 627.312 314 637.166 314C650.717 314 661.857 327.551 661.998 344.213C662.118 358.754 657.833 372.179 648.896 385.252C644.7 391.387 637.092 401.199 619.524 415.509C618.338 416.479 616.936 416.999 615.5 417Z" fill="#FF4E80"/>
</g>
<g filter="url(#filter4_f_50_43)">
<path d="M722.5 242C721.805 241.999 721.127 241.746 720.553 241.275C712.052 234.328 708.371 229.565 706.341 226.587C702.014 220.24 699.943 213.723 700.001 206.665C700.069 198.578 705.459 192 712.016 192C716.784 192 720.087 195.233 722.01 197.926C722.071 198.01 722.146 198.078 722.231 198.124C722.315 198.171 722.407 198.195 722.5 198.195C722.593 198.195 722.685 198.171 722.769 198.124C722.854 198.078 722.929 198.01 722.99 197.926C724.913 195.23 728.216 192 732.984 192C739.541 192 744.931 198.578 744.999 206.667C745.057 213.725 742.984 220.242 738.659 226.589C736.629 229.566 732.948 234.329 724.447 241.276C723.873 241.747 723.195 241.999 722.5 242Z" fill="#FF6993"/>
</g>
<g filter="url(#filter5_f_50_43)">
<path d="M371 539C367.573 538.995 364.226 537.757 361.395 535.446C319.457 501.408 301.298 478.069 291.282 463.477C269.937 432.374 259.718 400.441 260.006 365.86C260.342 326.233 286.933 294 319.281 294C342.803 294 359.095 309.842 368.583 323.036C368.883 323.45 369.255 323.782 369.672 324.009C370.089 324.237 370.542 324.354 371 324.354C371.458 324.354 371.911 324.237 372.328 324.009C372.745 323.782 373.117 323.45 373.417 323.036C382.905 309.829 399.197 294 422.719 294C455.067 294 481.658 326.233 481.994 365.867C482.282 400.454 472.053 432.387 450.718 463.484C440.702 478.075 422.543 501.414 380.605 535.453C377.774 537.761 374.427 538.997 371 539Z" fill="#AC002F"/>
</g>
<g filter="url(#filter6_f_50_43)">
<path d="M371 491C368.931 490.997 366.911 490.249 365.202 488.853C339.889 468.291 328.928 454.193 322.882 445.378C309.998 426.589 303.83 407.299 304.004 386.409C304.206 362.471 320.257 343 339.782 343C353.98 343 363.814 352.57 369.541 360.54C369.722 360.79 369.946 360.991 370.198 361.128C370.45 361.265 370.723 361.336 371 361.336C371.277 361.336 371.55 361.265 371.802 361.128C372.054 360.991 372.278 360.79 372.459 360.54C378.186 352.562 388.02 343 402.218 343C421.743 343 437.794 362.471 437.996 386.413C438.17 407.307 431.996 426.597 419.118 445.382C413.072 454.197 402.111 468.295 376.798 488.857C375.089 490.251 373.069 490.998 371 491Z" fill="#FF84A6"/>
</g>
<defs>
<filter id="filter0_f_50_43" x="812.6" y="81.6" width="302.8" height="328.8" filterUnits="userSpaceOnUse" color-interpolation-filters="sRGB">
<feFlood flood-opacity="0" result="BackgroundImageFix"/>
<feBlend mode="normal" in="SourceGraphic" in2="BackgroundImageFix" result="shape"/>
<feGaussianBlur stdDeviation="13.7" result="effect1_foregroundBlur_50_43"/>
</filter>
<filter id="filter1_f_50_43" x="855.1" y="128.1" width="218.8" height="235.8" filterUnits="userSpaceOnUse" color-interpolation-filters="sRGB">
<feFlood flood-opacity="0" result="BackgroundImageFix"/>
<feBlend mode="normal" in="SourceGraphic" in2="BackgroundImageFix" result="shape"/>
<feGaussianBlur stdDeviation="14.95" result="effect1_foregroundBlur_50_43"/>
</filter>
<filter id="filter2_f_50_43" x="363" y="115" width="78" height="85" filterUnits="userSpaceOnUse" color-interpolation-filters="sRGB">
<feFlood flood-opacity="0" result="BackgroundImageFix"/>
<feBlend mode="normal" in="SourceGraphic" in2="BackgroundImageFix" result="shape"/>
<feGaussianBlur stdDeviation="4" result="effect1_foregroundBlur_50_43"/>
</filter>
<filter id="filter3_f_50_43" x="552.9" y="297.9" width="125.2" height="135.2" filterUnits="userSpaceOnUse" color-interpolation-filters="sRGB">
<feFlood flood-opacity="0" result="BackgroundImageFix"/>
<feBlend mode="normal" in="SourceGraphic" in2="BackgroundImageFix" result="shape"/>
<feGaussianBlur stdDeviation="8.05" result="effect1_foregroundBlur_50_43"/>
</filter>
<filter id="filter4_f_50_43" x="692.5" y="184.5" width="60" height="65" filterUnits="userSpaceOnUse" color-interpolation-filters="sRGB">
<feFlood flood-opacity="0" result="BackgroundImageFix"/>
<feBlend mode="normal" in="SourceGraphic" in2="BackgroundImageFix" result="shape"/>
<feGaussianBlur stdDeviation="3.75" result="effect1_foregroundBlur_50_43"/>
</filter>
<filter id="filter5_f_50_43" x="244.1" y="278.1" width="253.8" height="276.8" filterUnits="userSpaceOnUse" color-interpolation-filters="sRGB">
<feFlood flood-opacity="0" result="BackgroundImageFix"/>
<feBlend mode="normal" in="SourceGraphic" in2="BackgroundImageFix" result="shape"/>
<feGaussianBlur stdDeviation="7.95" result="effect1_foregroundBlur_50_43"/>
</filter>
<filter id="filter6_f_50_43" x="288.1" y="327.1" width="165.8" height="179.8" filterUnits="userSpaceOnUse" color-interpolation-filters="sRGB">
<feFlood flood-opacity="0" result="BackgroundImageFix"/>
<feBlend mode="normal" in="SourceGraphic" in2="BackgroundImageFix" result="shape"/>
<feGaussianBlur stdDeviation="7.95" result="effect1_foregroundBlur_50_43"/>
</filter>
</defs>
</svg>
