<svg width="1231" height="663" viewBox="0 0 1231 663" fill="none" xmlns="http://www.w3.org/2000/svg">
<rect width="1231" height="663" fill="#FFB4DD"/>
<g filter="url(#filter0_f_48_10)">
<path d="M616 469C612.171 468.994 608.432 467.609 605.27 465.026C558.421 426.958 538.135 400.857 526.945 384.538C503.1 349.753 491.685 314.04 492.007 275.366C492.382 231.048 522.087 195 558.224 195C584.501 195 602.701 212.717 613.3 227.473C613.635 227.936 614.05 228.307 614.516 228.561C614.982 228.816 615.488 228.947 616 228.947C616.512 228.947 617.018 228.816 617.484 228.561C617.95 228.307 618.365 227.936 618.7 227.473C629.299 212.703 647.499 195 673.776 195C709.913 195 739.618 231.048 739.993 275.373C740.315 314.054 728.888 349.767 705.055 384.545C693.865 400.864 673.579 426.965 626.73 465.033C623.567 467.614 619.828 468.996 616 469Z" fill="#FE2461"/>
</g>
<g filter="url(#filter1_f_48_10)">
<path d="M616.5 420C614.045 419.996 611.648 419.107 609.621 417.447C579.584 392.995 566.578 376.229 559.404 365.747C544.117 343.403 536.798 320.464 537.004 295.622C537.245 267.155 556.29 244 579.458 244C596.305 244 607.973 255.38 614.769 264.859C614.984 265.156 615.25 265.394 615.549 265.558C615.847 265.721 616.172 265.806 616.5 265.806C616.828 265.806 617.153 265.721 617.451 265.558C617.75 265.394 618.016 265.156 618.231 264.859C625.027 255.371 636.695 244 653.542 244C676.71 244 695.755 267.155 695.996 295.627C696.202 320.473 688.876 343.413 673.596 365.752C666.422 376.234 653.416 393 623.379 417.452C621.351 419.11 618.954 419.998 616.5 420Z" fill="#FF8EAE"/>
</g>
<g filter="url(#filter2_f_48_10)">
<path d="M848 195C846.919 194.998 845.864 194.609 844.971 193.883C831.748 183.185 826.022 175.85 822.864 171.264C816.133 161.489 812.911 151.453 813.002 140.585C813.108 128.13 821.492 118 831.692 118C839.109 118 844.246 122.979 847.238 127.126C847.333 127.256 847.45 127.36 847.581 127.431C847.713 127.503 847.855 127.54 848 127.54C848.145 127.54 848.287 127.503 848.419 127.431C848.55 127.36 848.667 127.256 848.762 127.126C851.754 122.975 856.891 118 864.308 118C874.508 118 882.892 128.13 882.998 140.587C883.089 151.457 879.863 161.493 873.136 171.266C869.978 175.852 864.252 183.187 851.029 193.885C850.136 194.61 849.081 194.999 848 195Z" fill="#CD2C59"/>
</g>
<g filter="url(#filter3_f_48_10)">
<path d="M350.5 519C348.045 518.996 345.648 518.107 343.621 516.447C313.584 491.995 300.578 475.229 293.404 464.747C278.117 442.403 270.798 419.464 271.004 394.622C271.245 366.155 290.29 343 313.458 343C330.305 343 341.973 354.38 348.769 363.859C348.984 364.156 349.25 364.394 349.549 364.558C349.847 364.721 350.172 364.806 350.5 364.806C350.828 364.806 351.153 364.721 351.451 364.558C351.75 364.394 352.016 364.156 352.231 363.859C359.027 354.371 370.695 343 387.542 343C410.71 343 429.755 366.155 429.996 394.627C430.202 419.473 422.876 442.413 407.596 464.752C400.422 475.234 387.416 492 357.379 516.452C355.351 518.11 352.954 518.998 350.5 519Z" fill="#FF6993"/>
</g>
<defs>
<filter id="filter0_f_48_10" x="445.3" y="148.3" width="341.4" height="367.4" filterUnits="userSpaceOnUse" color-interpolation-filters="sRGB">
<feFlood flood-opacity="0" result="BackgroundImageFix"/>
<feBlend mode="normal" in="SourceGraphic" in2="BackgroundImageFix" result="shape"/>
<feGaussianBlur stdDeviation="23.35" result="effect1_foregroundBlur_48_10"/>
</filter>
<filter id="filter1_f_48_10" x="507.1" y="214.1" width="218.8" height="235.8" filterUnits="userSpaceOnUse" color-interpolation-filters="sRGB">
<feFlood flood-opacity="0" result="BackgroundImageFix"/>
<feBlend mode="normal" in="SourceGraphic" in2="BackgroundImageFix" result="shape"/>
<feGaussianBlur stdDeviation="14.95" result="effect1_foregroundBlur_48_10"/>
</filter>
<filter id="filter2_f_48_10" x="797.1" y="102.1" width="101.8" height="108.8" filterUnits="userSpaceOnUse" color-interpolation-filters="sRGB">
<feFlood flood-opacity="0" result="BackgroundImageFix"/>
<feBlend mode="normal" in="SourceGraphic" in2="BackgroundImageFix" result="shape"/>
<feGaussianBlur stdDeviation="7.95" result="effect1_foregroundBlur_48_10"/>
</filter>
<filter id="filter3_f_48_10" x="241.1" y="313.1" width="218.8" height="235.8" filterUnits="userSpaceOnUse" color-interpolation-filters="sRGB">
<feFlood flood-opacity="0" result="BackgroundImageFix"/>
<feBlend mode="normal" in="SourceGraphic" in2="BackgroundImageFix" result="shape"/>
<feGaussianBlur stdDeviation="14.95" result="effect1_foregroundBlur_48_10"/>
</filter>
</defs>
</svg>
