<svg width="1231" height="663" viewBox="0 0 1231 663" fill="none" xmlns="http://www.w3.org/2000/svg">
<rect width="1231" height="663" fill="#FFB4DD"/>
<g filter="url(#filter0_f_50_34)">
<path d="M927 568C923.171 567.994 919.432 566.609 916.27 564.026C869.421 525.958 849.135 499.857 837.945 483.538C814.1 448.753 802.685 413.04 803.007 374.366C803.382 330.048 833.087 294 869.224 294C895.501 294 913.701 311.717 924.3 326.473C924.635 326.936 925.05 327.307 925.516 327.561C925.982 327.816 926.488 327.947 927 327.947C927.512 327.947 928.018 327.816 928.484 327.561C928.95 327.307 929.365 326.936 929.7 326.473C940.299 311.703 958.499 294 984.776 294C1020.91 294 1050.62 330.048 1050.99 374.373C1051.32 413.054 1039.89 448.767 1016.05 483.545C1004.87 499.864 984.579 525.965 937.73 564.033C934.567 566.614 930.828 567.996 927 568Z" fill="#FE2461"/>
</g>
<g filter="url(#filter1_f_50_34)">
<path d="M927.5 519C925.045 518.996 922.648 518.107 920.621 516.447C890.584 491.995 877.578 475.229 870.404 464.747C855.117 442.403 847.798 419.464 848.004 394.622C848.245 366.155 867.29 343 890.458 343C907.305 343 918.973 354.38 925.769 363.859C925.984 364.156 926.25 364.394 926.549 364.558C926.847 364.721 927.172 364.806 927.5 364.806C927.828 364.806 928.153 364.721 928.451 364.558C928.75 364.394 929.016 364.156 929.231 363.859C936.027 354.371 947.695 343 964.542 343C987.71 343 1006.75 366.155 1007 394.627C1007.2 419.473 999.876 442.413 984.596 464.752C977.422 475.234 964.416 492 934.379 516.452C932.351 518.11 929.954 518.998 927.5 519Z" fill="#FF8EAE"/>
</g>
<g filter="url(#filter2_f_50_34)">
<path d="M736 294C733.931 293.997 731.911 293.249 730.202 291.853C704.889 271.291 693.928 257.193 687.882 248.378C674.998 229.589 668.83 210.299 669.004 189.409C669.206 165.471 685.257 146 704.782 146C718.98 146 728.814 155.57 734.541 163.54C734.722 163.79 734.946 163.991 735.198 164.128C735.45 164.265 735.723 164.336 736 164.336C736.277 164.336 736.55 164.265 736.802 164.128C737.054 163.991 737.278 163.79 737.459 163.54C743.186 155.562 753.02 146 767.218 146C786.743 146 802.794 165.471 802.996 189.413C803.17 210.307 796.996 229.597 784.118 248.382C778.072 257.197 767.111 271.295 741.798 291.857C740.089 293.251 738.069 293.998 736 294Z" fill="#CD2C59"/>
</g>
<g filter="url(#filter3_f_50_34)">
<path d="M437 491C433.573 490.995 430.226 489.757 427.395 487.446C385.457 453.408 367.298 430.069 357.282 415.477C335.937 384.374 325.718 352.441 326.006 317.86C326.342 278.233 352.933 246 385.281 246C408.803 246 425.095 261.842 434.583 275.036C434.883 275.45 435.255 275.782 435.672 276.009C436.089 276.237 436.542 276.354 437 276.354C437.458 276.354 437.911 276.237 438.328 276.009C438.745 275.782 439.117 275.45 439.417 275.036C448.905 261.829 465.197 246 488.719 246C521.067 246 547.658 278.233 547.994 317.867C548.282 352.454 538.053 384.387 516.718 415.484C506.702 430.075 488.543 453.414 446.605 487.453C443.774 489.761 440.427 490.997 437 491Z" fill="#FF2460"/>
</g>
<g filter="url(#filter4_f_50_34)">
<path d="M651.5 519C650.064 518.998 648.662 518.477 647.476 517.506C629.908 503.196 622.3 493.384 618.105 487.25C609.163 474.174 604.882 460.749 605.002 446.211C605.143 429.551 616.283 416 629.834 416C639.688 416 646.513 422.66 650.487 428.207C650.613 428.381 650.769 428.521 650.944 428.616C651.118 428.712 651.308 428.761 651.5 428.761C651.692 428.761 651.882 428.712 652.056 428.616C652.231 428.521 652.387 428.381 652.513 428.207C656.487 422.655 663.312 416 673.166 416C686.717 416 697.857 429.551 697.998 446.213C698.118 460.754 693.833 474.179 684.896 487.252C680.7 493.387 673.092 503.199 655.524 517.509C654.338 518.479 652.936 518.999 651.5 519Z" fill="#FF6993"/>
</g>
<g filter="url(#filter5_f_50_34)">
<path d="M303.5 197C302.064 196.998 300.662 196.477 299.476 195.506C281.908 181.196 274.3 171.384 270.105 165.25C261.163 152.174 256.882 138.749 257.002 124.211C257.143 107.551 268.283 94 281.834 94C291.688 94 298.513 100.66 302.487 106.207C302.613 106.381 302.769 106.521 302.944 106.616C303.118 106.712 303.308 106.761 303.5 106.761C303.692 106.761 303.882 106.712 304.056 106.616C304.231 106.521 304.387 106.381 304.513 106.207C308.487 100.655 315.312 94 325.166 94C338.717 94 349.857 107.551 349.998 124.213C350.118 138.754 345.833 152.179 336.896 165.252C332.7 171.387 325.092 181.199 307.524 195.509C306.338 196.479 304.936 196.999 303.5 197Z" fill="#FF6993"/>
</g>
<g filter="url(#filter6_f_50_34)">
<path d="M437 443C434.931 442.997 432.911 442.249 431.202 440.853C405.889 420.291 394.928 406.193 388.882 397.378C375.998 378.589 369.83 359.299 370.004 338.409C370.206 314.471 386.257 295 405.782 295C419.98 295 429.814 304.57 435.541 312.54C435.722 312.79 435.946 312.991 436.198 313.128C436.45 313.265 436.723 313.336 437 313.336C437.277 313.336 437.55 313.265 437.802 313.128C438.054 312.991 438.278 312.79 438.459 312.54C444.186 304.562 454.02 295 468.218 295C487.743 295 503.794 314.471 503.996 338.413C504.17 359.307 497.996 378.597 485.118 397.382C479.072 406.197 468.111 420.295 442.798 440.857C441.089 442.251 439.069 442.998 437 443Z" fill="#CD2C59"/>
</g>
<defs>
<filter id="filter0_f_50_34" x="756.3" y="247.3" width="341.4" height="367.4" filterUnits="userSpaceOnUse" color-interpolation-filters="sRGB">
<feFlood flood-opacity="0" result="BackgroundImageFix"/>
<feBlend mode="normal" in="SourceGraphic" in2="BackgroundImageFix" result="shape"/>
<feGaussianBlur stdDeviation="23.35" result="effect1_foregroundBlur_50_34"/>
</filter>
<filter id="filter1_f_50_34" x="818.1" y="313.1" width="218.8" height="235.8" filterUnits="userSpaceOnUse" color-interpolation-filters="sRGB">
<feFlood flood-opacity="0" result="BackgroundImageFix"/>
<feBlend mode="normal" in="SourceGraphic" in2="BackgroundImageFix" result="shape"/>
<feGaussianBlur stdDeviation="14.95" result="effect1_foregroundBlur_50_34"/>
</filter>
<filter id="filter2_f_50_34" x="653.1" y="130.1" width="165.8" height="179.8" filterUnits="userSpaceOnUse" color-interpolation-filters="sRGB">
<feFlood flood-opacity="0" result="BackgroundImageFix"/>
<feBlend mode="normal" in="SourceGraphic" in2="BackgroundImageFix" result="shape"/>
<feGaussianBlur stdDeviation="7.95" result="effect1_foregroundBlur_50_34"/>
</filter>
<filter id="filter3_f_50_34" x="310.1" y="230.1" width="253.8" height="276.8" filterUnits="userSpaceOnUse" color-interpolation-filters="sRGB">
<feFlood flood-opacity="0" result="BackgroundImageFix"/>
<feBlend mode="normal" in="SourceGraphic" in2="BackgroundImageFix" result="shape"/>
<feGaussianBlur stdDeviation="7.95" result="effect1_foregroundBlur_50_34"/>
</filter>
<filter id="filter4_f_50_34" x="575.1" y="386.1" width="152.8" height="162.8" filterUnits="userSpaceOnUse" color-interpolation-filters="sRGB">
<feFlood flood-opacity="0" result="BackgroundImageFix"/>
<feBlend mode="normal" in="SourceGraphic" in2="BackgroundImageFix" result="shape"/>
<feGaussianBlur stdDeviation="14.95" result="effect1_foregroundBlur_50_34"/>
</filter>
<filter id="filter5_f_50_34" x="227.1" y="64.1" width="152.8" height="162.8" filterUnits="userSpaceOnUse" color-interpolation-filters="sRGB">
<feFlood flood-opacity="0" result="BackgroundImageFix"/>
<feBlend mode="normal" in="SourceGraphic" in2="BackgroundImageFix" result="shape"/>
<feGaussianBlur stdDeviation="14.95" result="effect1_foregroundBlur_50_34"/>
</filter>
<filter id="filter6_f_50_34" x="354.1" y="279.1" width="165.8" height="179.8" filterUnits="userSpaceOnUse" color-interpolation-filters="sRGB">
<feFlood flood-opacity="0" result="BackgroundImageFix"/>
<feBlend mode="normal" in="SourceGraphic" in2="BackgroundImageFix" result="shape"/>
<feGaussianBlur stdDeviation="7.95" result="effect1_foregroundBlur_50_34"/>
</filter>
</defs>
</svg>
