<svg width="31" height="31" viewBox="0 0 31 31" fill="none" xmlns="http://www.w3.org/2000/svg">
<path d="M15.5 31C15.0214 30.9993 14.554 30.8427 14.1587 30.5503C8.30257 26.2434 5.76682 23.2904 4.36817 21.4441C1.38756 17.5085 -0.0394108 13.468 0.00082743 9.09253C0.047772 4.07844 3.76087 0 8.27798 0C11.5626 0 13.8376 2.00451 15.1624 3.67398C15.2044 3.72634 15.2563 3.76832 15.3145 3.79709C15.3727 3.82585 15.436 3.84074 15.5 3.84074C15.564 3.84074 15.6273 3.82585 15.6855 3.79709C15.7437 3.76832 15.7956 3.72634 15.8376 3.67398C17.1624 2.00289 19.4374 0 22.722 0C27.2391 0 30.9522 4.07844 30.9992 9.09333C31.0394 13.4697 29.611 17.5102 26.6318 21.4449C25.2332 23.2912 22.6974 26.2442 16.8413 30.5511C16.4459 30.8432 15.9785 30.9996 15.5 31Z" fill="url(#paint0_linear_3_3)" fill-opacity="0.7"/>
<defs>
<linearGradient id="paint0_linear_3_3" x1="10" y1="10.5" x2="15.5" y2="31" gradientUnits="userSpaceOnUse">
<stop stop-color="#21006E" stop-opacity="0.89"/>
<stop offset="0.875" stop-color="#00D9FF" stop-opacity="0.7"/>
</linearGradient>
</defs>
</svg>
