<svg width="10" height="10" viewBox="0 0 10 10" fill="none" xmlns="http://www.w3.org/2000/svg">
<path d="M5 10C4.84561 9.99979 4.69485 9.94925 4.56733 9.85495C2.67825 8.46562 1.86026 7.51302 1.40909 6.91745C0.447599 5.64792 -0.0127132 4.34453 0.000266913 2.93307C0.0154103 1.31563 1.21318 0 2.67032 0C3.72988 0 4.46373 0.646615 4.89111 1.18516C4.90465 1.20204 4.92138 1.21559 4.94016 1.22487C4.95895 1.23415 4.97935 1.23895 5 1.23895C5.02065 1.23895 5.04105 1.23415 5.05984 1.22487C5.07862 1.21559 5.09535 1.20204 5.10889 1.18516C5.53627 0.646094 6.27013 0 7.32968 0C8.78682 0 9.98459 1.31562 9.99973 2.93333C10.0127 4.34505 9.55192 5.64844 8.59092 6.91771C8.13974 7.51328 7.32175 8.46589 5.43267 9.85521C5.30512 9.94941 5.15437 9.99987 5 10Z" fill="url(#paint0_linear_3_3)" fill-opacity="0.7"/>
<defs>
<linearGradient id="paint0_linear_3_3" x1="3.22581" y1="3.3871" x2="5" y2="10" gradientUnits="userSpaceOnUse">
<stop stop-color="#21006E" stop-opacity="0.89"/>
<stop offset="0.875" stop-color="#00D9FF" stop-opacity="0.7"/>
</linearGradient>
</defs>
</svg>
