<svg width="10" height="12" viewBox="0 0 10 12" fill="none" xmlns="http://www.w3.org/2000/svg">
<path d="M9.5 0C9.36739 0 9.24021 0.0526785 9.14645 0.146447C9.05268 0.240215 9 0.367392 9 0.5V4.76344L1.72594 0.409688C1.55793 0.307488 1.36555 0.252295 1.16891 0.249876C0.972275 0.247457 0.778598 0.297902 0.608125 0.395937C0.233125 0.608437 0 1.01969 0 1.46875V10.5312C0 10.9803 0.233125 11.3916 0.608125 11.6041C0.778637 11.702 0.972324 11.7524 1.16895 11.7499C1.36559 11.7474 1.55794 11.6922 1.72594 11.59L9 7.23656V11.5C9 11.6326 9.05268 11.7598 9.14645 11.8536C9.24021 11.9473 9.36739 12 9.5 12C9.63261 12 9.75979 11.9473 9.85355 11.8536C9.94732 11.7598 10 11.6326 10 11.5V0.5C10 0.367392 9.94732 0.240215 9.85355 0.146447C9.75979 0.0526785 9.63261 0 9.5 0Z" fill="black"/>
</svg>
