<svg width="10" height="16" viewBox="0 0 10 16" fill="none" xmlns="http://www.w3.org/2000/svg">
<path d="M2.85714 16H0.714286C0.524845 16 0.343164 15.9234 0.20921 15.787C0.075255 15.6506 0 15.4656 0 15.2727V0.727273C0 0.534388 0.075255 0.349404 0.20921 0.213013C0.343164 0.0766233 0.524845 0 0.714286 0H2.85714C3.04658 0 3.22826 0.0766233 3.36222 0.213013C3.49617 0.349404 3.57143 0.534388 3.57143 0.727273V15.2727C3.57143 15.4656 3.49617 15.6506 3.36222 15.787C3.22826 15.9234 3.04658 16 2.85714 16ZM9.28571 16H7.14286C6.95342 16 6.77174 15.9234 6.63778 15.787C6.50383 15.6506 6.42857 15.4656 6.42857 15.2727V0.727273C6.42857 0.534388 6.50383 0.349404 6.63778 0.213013C6.77174 0.0766233 6.95342 0 7.14286 0H9.28571C9.47515 0 9.65684 0.0766233 9.79079 0.213013C9.92475 0.349404 10 0.534388 10 0.727273V15.2727C10 15.4656 9.92475 15.6506 9.79079 15.787C9.65684 15.9234 9.47515 16 9.28571 16Z" fill="black"/>
</svg>
