<svg width="460" height="455" viewBox="0 0 460 455" fill="none" xmlns="http://www.w3.org/2000/svg">
<rect width="455" height="455" rx="10" fill="#FCEBF5"/>
<g filter="url(#filter0_f_71_26)">
<path d="M189.909 361.661C187.905 361.658 185.948 360.932 184.292 359.577C159.769 339.618 149.15 325.933 143.292 317.377C130.811 299.139 124.835 280.414 125.003 260.137C125.2 236.9 140.749 218 159.666 218C173.421 218 182.947 227.289 188.495 235.026C188.671 235.269 188.888 235.463 189.132 235.597C189.376 235.73 189.641 235.799 189.909 235.799C190.177 235.799 190.442 235.73 190.686 235.597C190.93 235.463 191.147 235.269 191.323 235.026C196.871 227.282 206.398 218 220.153 218C239.069 218 254.618 236.9 254.815 260.141C254.983 280.422 249.001 299.146 236.526 317.381C230.668 325.937 220.05 339.622 195.526 359.581C193.87 360.935 191.913 361.659 189.909 361.661Z" fill="#FF799F"/>
</g>
<g filter="url(#filter1_f_71_26)">
<path d="M190.171 335.826C188.886 335.824 187.631 335.359 186.57 334.492C170.847 321.711 164.039 312.948 160.284 307.469C152.281 295.791 148.45 283.801 148.558 270.816C148.684 255.937 158.653 243.835 170.781 243.835C179.599 243.835 185.707 249.783 189.264 254.737C189.377 254.892 189.516 255.017 189.673 255.102C189.829 255.188 189.999 255.232 190.171 255.232C190.343 255.232 190.512 255.188 190.669 255.102C190.825 255.017 190.964 254.892 191.077 254.737C194.634 249.778 200.742 243.835 209.561 243.835C221.688 243.835 231.658 255.937 231.784 270.819C231.892 283.805 228.056 295.795 220.058 307.472C216.303 312.95 209.495 321.713 193.772 334.494C192.71 335.361 191.456 335.825 190.171 335.826Z" fill="#A1163D"/>
</g>
<g filter="url(#filter2_f_71_26)">
<path d="M95 204.156C93.2399 204.154 91.5213 203.516 90.0676 202.327C68.532 184.799 59.207 172.782 54.0636 165.268C43.1026 149.252 37.8551 132.809 38.003 115.003C38.1757 94.5975 51.8303 78 68.4416 78C80.5206 78 88.8865 86.1575 93.7587 92.9515C93.913 93.1646 94.1037 93.3354 94.3179 93.4525C94.532 93.5696 94.7646 93.6302 95 93.6302C95.2354 93.6302 95.468 93.5696 95.6822 93.4525C95.8963 93.3354 96.087 93.1646 96.2413 92.9515C101.113 86.1509 109.479 78 121.558 78C138.17 78 151.824 94.5975 151.997 115.006C152.145 132.816 146.892 149.259 135.936 165.271C130.793 172.785 121.468 184.803 99.9324 202.33C98.4784 203.518 96.7598 204.155 95 204.156Z" fill="#FF799F"/>
</g>
<g filter="url(#filter3_f_71_26)">
<path d="M95.2297 181.469C94.1012 181.468 92.9994 181.059 92.0673 180.298C78.2603 169.074 72.2817 161.379 68.9841 156.568C61.9567 146.312 58.5924 135.783 58.6873 124.381C58.7979 111.315 67.5523 100.687 78.2023 100.687C85.9465 100.687 91.3101 105.911 94.4338 110.261C94.5328 110.397 94.655 110.507 94.7923 110.582C94.9296 110.657 95.0788 110.696 95.2297 110.696C95.3806 110.696 95.5297 110.657 95.667 110.582C95.8043 110.507 95.9266 110.397 96.0255 110.261C99.1492 105.906 104.513 100.687 112.257 100.687C122.907 100.687 131.661 111.315 131.772 124.383C131.867 135.787 128.499 146.316 121.475 156.57C118.178 161.381 112.199 169.076 98.392 180.3C97.4598 181.061 96.3579 181.468 95.2297 181.469Z" fill="#A1163D"/>
</g>
<g filter="url(#filter4_f_71_26)">
<path d="M337.111 283C333.958 282.995 330.879 281.853 328.275 279.722C289.696 248.323 272.991 226.794 263.777 213.334C244.141 184.643 234.74 155.186 235.005 123.287C235.315 86.7331 259.776 57 289.534 57C311.172 57 326.159 71.6135 334.888 83.7845C335.164 84.1662 335.506 84.4722 335.889 84.682C336.273 84.8917 336.69 85.0003 337.111 85.0003C337.533 85.0003 337.95 84.8917 338.333 84.682C338.717 84.4722 339.059 84.1662 339.335 83.7845C348.063 71.6017 363.05 57 384.689 57C414.447 57 438.908 86.7331 439.217 123.293C439.482 155.198 430.072 184.655 410.446 213.34C401.232 226.8 384.527 248.329 345.947 279.728C343.343 281.857 340.264 282.997 337.111 283Z" fill="#FF799F"/>
</g>
<g filter="url(#filter5_f_71_26)">
<path d="M337.523 242.358C335.501 242.355 333.527 241.623 331.858 240.258C307.124 220.153 296.413 206.367 290.506 197.748C277.917 179.376 271.89 160.514 272.06 140.088C272.258 116.681 287.941 97.6421 307.02 97.6421C320.893 97.6421 330.501 107 336.097 114.793C336.274 115.038 336.493 115.234 336.739 115.368C336.985 115.502 337.253 115.572 337.523 115.572C337.793 115.572 338.06 115.502 338.306 115.368C338.552 115.234 338.771 115.038 338.949 114.793C344.544 106.992 354.153 97.6421 368.026 97.6421C387.105 97.6421 402.788 116.681 402.986 140.092C403.156 160.522 397.123 179.384 384.54 197.752C378.632 206.371 367.922 220.157 343.188 240.262C341.518 241.626 339.544 242.356 337.523 242.358Z" fill="#A1163D"/>
</g>
<defs>
<filter id="filter0_f_71_26" x="115.344" y="208.344" width="149.13" height="162.973" filterUnits="userSpaceOnUse" color-interpolation-filters="sRGB">
<feFlood flood-opacity="0" result="BackgroundImageFix"/>
<feBlend mode="normal" in="SourceGraphic" in2="BackgroundImageFix" result="shape"/>
<feGaussianBlur stdDeviation="4.82799" result="effect1_foregroundBlur_71_26"/>
</filter>
<filter id="filter1_f_71_26" x="138.019" y="233.298" width="104.304" height="113.065" filterUnits="userSpaceOnUse" color-interpolation-filters="sRGB">
<feFlood flood-opacity="0" result="BackgroundImageFix"/>
<feBlend mode="normal" in="SourceGraphic" in2="BackgroundImageFix" result="shape"/>
<feGaussianBlur stdDeviation="5.2685" result="effect1_foregroundBlur_71_26"/>
</filter>
<filter id="filter2_f_71_26" x="31" y="71" width="128" height="140.156" filterUnits="userSpaceOnUse" color-interpolation-filters="sRGB">
<feFlood flood-opacity="0" result="BackgroundImageFix"/>
<feBlend mode="normal" in="SourceGraphic" in2="BackgroundImageFix" result="shape"/>
<feGaussianBlur stdDeviation="3.5" result="effect1_foregroundBlur_71_26"/>
</filter>
<filter id="filter3_f_71_26" x="35.7853" y="77.787" width="118.889" height="126.582" filterUnits="userSpaceOnUse" color-interpolation-filters="sRGB">
<feFlood flood-opacity="0" result="BackgroundImageFix"/>
<feBlend mode="normal" in="SourceGraphic" in2="BackgroundImageFix" result="shape"/>
<feGaussianBlur stdDeviation="11.45" result="effect1_foregroundBlur_71_26"/>
</filter>
<filter id="filter4_f_71_26" x="214.949" y="36.9493" width="244.324" height="266.101" filterUnits="userSpaceOnUse" color-interpolation-filters="sRGB">
<feFlood flood-opacity="0" result="BackgroundImageFix"/>
<feBlend mode="normal" in="SourceGraphic" in2="BackgroundImageFix" result="shape"/>
<feGaussianBlur stdDeviation="10.0254" result="effect1_foregroundBlur_71_26"/>
</filter>
<filter id="filter5_f_71_26" x="250.176" y="75.7619" width="174.693" height="188.476" filterUnits="userSpaceOnUse" color-interpolation-filters="sRGB">
<feFlood flood-opacity="0" result="BackgroundImageFix"/>
<feBlend mode="normal" in="SourceGraphic" in2="BackgroundImageFix" result="shape"/>
<feGaussianBlur stdDeviation="10.9401" result="effect1_foregroundBlur_71_26"/>
</filter>
</defs>
</svg>
