<svg width="10" height="12" viewBox="0 0 10 12" fill="none" xmlns="http://www.w3.org/2000/svg">
<path d="M0.5 0C0.632608 0 0.759785 0.0526785 0.853553 0.146447C0.947321 0.240215 1 0.367392 1 0.5V4.76344L8.27406 0.409688C8.44207 0.307488 8.63445 0.252295 8.83109 0.249876C9.02772 0.247457 9.2214 0.297902 9.39188 0.395937C9.76688 0.608437 10 1.02094 10 1.46875V10.5312C10 10.9803 9.76688 11.3916 9.39188 11.6041C9.22136 11.702 9.02768 11.7524 8.83105 11.7499C8.63441 11.7474 8.44206 11.6922 8.27406 11.59L1 7.23656V11.5C1 11.6326 0.947321 11.7598 0.853553 11.8536C0.759785 11.9473 0.632608 12 0.5 12C0.367392 12 0.240215 11.9473 0.146447 11.8536C0.0526785 11.7598 0 11.6326 0 11.5V0.5C0 0.367392 0.0526785 0.240215 0.146447 0.146447C0.240215 0.0526785 0.367392 0 0.5 0Z" fill="black"/>
</svg>
